/vscmnt/brussel_pixiu_data/_data_brussel/112/vsc11236/PredSimResults/SUBJ04opt3D/worker_05.mot
version=1
nRows=6
nColumns=50
inDegrees=yes
endheader
                time	         pelvis_tilt	         pelvis_list	     pelvis_rotation	           pelvis_tx	           pelvis_ty	           pelvis_tz	       hip_flexion_r	     hip_adduction_r	      hip_rotation_r	        knee_angle_r	       ankle_angle_r	         mtp_angle_r	       hip_flexion_l	     hip_adduction_l	      hip_rotation_l	        knee_angle_l	       ankle_angle_l	         mtp_angle_l	    lumbar_extension	      lumbar_bending	     lumbar_rotation	 ercspn_r/activation	 intobl_r/activation	 extobl_r/activation	    abd_r/activation	    add_r/activation	hamstrings_r/activation	bifemsh_r/activation	glut_max_r/activation	iliopsoas_r/activation	rect_fem_r/activation	  vasti_r/activation	gastroc_r/activation	 soleus_r/activation	tib_ant_r/activation	 ercspn_l/activation	 intobl_l/activation	 extobl_l/activation	    abd_l/activation	    add_l/activation	hamstrings_l/activation	bifemsh_l/activation	glut_max_l/activation	iliopsoas_l/activation	rect_fem_l/activation	  vasti_l/activation	gastroc_l/activation	 soleus_l/activation	tib_ant_l/activation	
          0.00000000	         -2.45282592	          0.49788681	          8.68336328	          0.00000000	          0.87908948	         -0.01052403	         29.97465330	         -3.58022877	        -10.54540567	        -12.36278283	          4.30575892	          0.23858290	        -13.24537083	         -0.63235915	         -7.96266770	         -8.95763761	         11.68808796	         23.91247005	        -13.36682557	         -2.85318361	         -8.22280139	          0.04577820	          0.21729759	          0.01575368	          0.00999999	          0.31161541	          0.06211386	          0.02768377	          0.05813282	          0.15178846	          0.03112530	          0.02996827	          0.01468026	          0.01762537	          0.32984891	          0.05084015	          0.00999999	          0.00999999	          0.04644477	          0.00999999	          0.02544239	          0.16231903	          0.01468026	          0.01272009	          0.00999999	          0.00999999	          0.23187785	          0.25682120	          0.00999999	
          0.01269732	         -2.53100430	          0.45754829	          8.44521503	          0.01632432	          0.87699102	         -0.01006033	         29.71636612	         -3.41709422	        -10.64554361	        -13.60118087	          4.02384409	          0.22535401	        -13.86257216	         -0.81366517	         -8.62823347	         -9.70469471	         11.21303258	         25.42625613	        -12.85678508	         -2.24958319	         -8.32285934	          0.03778257	          0.20606426	          0.01300214	          0.03649588	          0.25718864	          0.06232617	          0.02284852	          0.05652807	          0.12527708	          0.02568896	          0.04812326	          0.01211621	          0.01454692	          0.36230135	          0.04634143	          0.00999999	          0.00999999	          0.03833272	          0.00999999	          0.02099862	          0.13396837	          0.01211621	          0.02155104	          0.00999999	          0.00999999	          0.19137805	          0.24187745	          0.00999999	
          0.02539464	         -2.59452320	          0.37227076	          8.15510575	          0.03288980	          0.87515707	         -0.00949401	         29.37119904	         -3.22219055	        -10.78472496	        -14.66876586	          3.54767218	          0.21410866	        -14.34784134	         -1.06126220	         -9.32611464	        -10.74051920	         10.63857705	         26.96515573	        -12.33278763	         -1.58195670	         -8.38351274	          0.03435269	          0.17007306	          0.01073119	          0.05608419	          0.22142406	          0.06449068	          0.01885780	          0.04665488	          0.10339617	          0.02120212	          0.11872617	          0.00999999	          0.01200615	          0.39722994	          0.04920274	          0.00999999	          0.00999999	          0.03163752	          0.00999999	          0.01733100	          0.11056945	          0.00999999	          0.01778693	          0.00999999	          0.00999999	          0.15795194	          0.22504387	          0.00999999	
          0.03809196	         -2.64444651	          0.25249188	          7.81738203	          0.04952168	          0.87377627	         -0.00881112	         28.96283036	         -2.99486214	        -11.01205330	        -15.64259978	          3.12609335	          0.18914375	        -14.62765517	         -1.37723362	        -10.05561060	        -12.16719239	          9.91112880	         28.54238066	        -11.81989783	         -0.86603078	         -8.40280817	          0.04085344	          0.14036808	          0.00999999	          0.09035984	          0.20229115	          0.06635184	          0.01556409	          0.03850613	          0.08533699	          0.01749896	          0.18593989	          0.00999999	          0.00999999	          0.41821012	          0.07399224	          0.00999999	          0.00999999	          0.02611171	          0.00999999	          0.01430397	          0.09125738	          0.00999999	          0.01468026	          0.00999999	          0.00999999	          0.13036404	          0.18959978	          0.00999999	
          0.05078928	         -2.68211631	          0.09523171	          7.44644806	          0.06605828	          0.87304269	         -0.00801052	         28.48177987	         -2.72122686	        -11.28003524	        -16.53295653	          2.94382820	          0.16328117	        -14.62646663	         -1.78416287	        -10.80701826	        -14.08629310	          8.98701701	         30.13078221	        -11.33578746	         -0.10437217	         -8.38437979	          0.03595381	          0.11585138	          0.00999999	          0.12389987	          0.17524130	          0.06524453	          0.01284567	          0.04308735	          0.07043202	          0.01444259	          0.23336614	          0.00999999	          0.00999999	          0.41997785	          0.11144189	          0.00999999	          0.00999999	          0.02155104	          0.00999999	          0.04113178	          0.07531836	          0.00999999	          0.01211621	          0.00999999	          0.01676154	          0.10759465	          0.15648427	          0.00999999	
          0.06348660	         -2.70911158	         -0.09729491	          7.05624254	          0.08232743	          0.87311833	         -0.00709491	         27.93645554	         -2.38755861	        -11.50161001	        -17.33100052	          2.99701576	          0.14279926	        -14.28599847	         -2.29904744	        -11.56677468	        -16.56027771	          7.80762182	         31.67322632	        -10.89834517	          0.69417154	         -8.33484791	          0.03427287	          0.09561677	          0.00999999	          0.14034527	          0.18087184	          0.06800878	          0.01060204	          0.03556171	          0.05813036	          0.01192004	          0.25363795	          0.00999999	          0.00999999	          0.40560488	          0.12006483	          0.00999999	          0.00999999	          0.01778693	          0.07522436	          0.08128997	          0.06216325	          0.01098081	          0.00999999	          0.00999999	          0.01468026	          0.08880216	          0.12915271	          0.00999999	
